PathFileType	4	(X/Y/Z)	Patient4_TMGait_0pt4_03_right_35.trc.trc
DataRate	CameraRate	NumFrames	NumMarkers	Units	OrigDataRate	OrigDataStartFrame	OrigNumFrames
74.468085106383	74.468085106383	5	33	mm	74.468085106383	1	       141
Frame#	Time	Sacral			L.Shoulder			Chest			R.Shoulder			Neck			R.ASIS			L.ASIS			R.Thigh.Superior			R.Thigh.Lateral			R.Thigh.Inferior			R.Patella			L.Thigh.Superior			L.Thigh.Lateral			L.Thigh.Inferior			L.Patella			L.Shank.Superior			L.Shank.Lateral			L.Shank.Inferior			R.Shank.Superior			R.Shank.Lateral			R.Shank.Inferior			R.Heel			R.Midfoot.Superior			R.Midfoot.Lateral			R.Toe			L.Heel			L.Midfoot.Lateral			L.Midfoot.Superior			L.Toe			L.Elbow			L.Wrist			R.Elbow			R.Wrist			
		X1	Y1	Z1	X2	Y2	Z2	X3	Y3	Z3	X4	Y4	Z4	X5	Y5	Z5	X6	Y6	Z6	X7	Y7	Z7	X8	Y8	Z8	X9	Y9	Z9	X10	Y10	Z10	X11	Y11	Z11	X12	Y12	Z12	X13	Y13	Z13	X14	Y14	Z14	X15	Y15	Z15	X16	Y16	Z16	X17	Y17	Z17	X18	Y18	Z18	X19	Y19	Z19	X20	Y20	Z20	X21	Y21	Z21	X22	Y22	Z22	X23	Y23	Z23	X24	Y24	Z24	X25	Y25	Z25	X26	Y26	Z26	X27	Y27	Z27	X28	Y28	Z28	X29	Y29	Z29	X30	Y30	Z30	X31	Y31	Z31	X32	Y32	Z32	X33	Y33	Z33	

1	45.650000000000	854.696711344643	1005.405678916156	408.616362574516	1037.433941544983	1435.169577689599	218.076037979300	1135.726162584893	1370.360845380112	383.981193920247	1044.460559884594	1443.342431617394	554.875245659828	1013.828013861075	1499.177283021379	373.409341195270	1084.693450911267	950.022754262718	527.636161047346	1071.079376035945	965.049943706801	254.129194652190	1169.141338304747	777.672498314953	502.185060232501	1127.631283243785	658.421478187355	580.077863694947	1219.708194394714	617.820543526634	505.025762969945	1237.917854419593	506.250840521442	531.326089987800	1120.555921858576	751.047185250621	281.309099184526	1029.218126116955	634.933018919346	226.780643485823	1113.071461757028	557.784874328912	289.787018583129	1112.015478969659	489.254554752478	302.017368765429	1085.510062323200	417.108489741391	295.160204797404	995.290089087127	302.629813292989	245.480196567663	1042.081669009727	191.953869703993	319.939531734009	1161.286363959785	431.712682993063	541.720248705873	1039.442122339229	396.462863502601	604.620613315650	1022.862589874509	285.229620344393	560.723799950713	823.252720024122	233.041093099885	537.502924386815	986.653598736171	160.081464377077	578.519327814547	876.758320500171	166.644866032273	609.541182420225	1040.634912106796	39.358481571117	600.030822511481	913.215740857708	38.664160676699	367.063141873923	984.930279683183	35.120856634347	284.227527801342	1068.979955100432	95.891734305799	310.189002403721	1197.119874663936	43.374393995503	277.932024955390	1064.766534017425	1092.591564890649	78.135704554276	1274.865761115385	935.890376316759	56.901620531381	969.541211042755	1102.603632124997	671.294010454484	1010.334494498936	843.648432474809	676.771314877073	
2	45.663428571429	853.565983054065	1006.291841906327	406.336627180943	1039.955937876163	1435.593628643201	217.079014432140	1135.998462744819	1370.385436304304	384.042781106140	1043.221632354719	1443.835939235259	553.752304621718	1014.498154320725	1499.601995890578	372.283915414215	1082.526880985565	951.105384907760	527.522521666268	1071.507519919070	965.226965790640	253.715519576928	1168.419684703509	780.618770371623	502.021879428666	1128.739184226663	661.098982407102	580.494561474074	1220.843543357554	621.226924475837	505.150373477591	1241.055649234903	510.866147380172	531.993182851933	1118.458054924838	750.456409394153	281.838678889210	1026.266979292467	635.058235170468	226.361033507736	1109.100521992871	557.214399162579	289.681016600507	1107.394707935560	488.797086573457	301.801009911938	1080.630684902317	416.897553970556	294.924495862469	990.143505755132	302.683051919821	245.162624154155	1036.581579499216	191.881620108715	319.723696004170	1167.167299358526	434.157281466709	542.314403381274	1047.144517659114	393.590482777950	604.909172895791	1035.842582579116	281.890945018278	561.237817011651	839.242145148710	220.351876417837	537.557362076846	1005.485368660186	155.694070620076	579.153476181384	895.609688458456	156.968413562191	610.020184167696	1065.054034067211	38.161806557887	601.209100426123	907.457864378587	38.733121712110	366.993745790873	979.201504893047	35.102256078599	284.188312750103	1063.287815255957	95.864945346509	310.093082600110	1191.421787518226	43.276291303412	277.902508245140	1069.443509743737	1094.054376304870	76.034334632215	1285.031225498075	946.268013003540	56.531482716524	960.446968269818	1105.603368614089	669.890353226477	994.437327912428	846.054012001359	676.264181106062	
3	45.676857142857	852.448431694273	1007.148272040679	404.097140169330	1042.453499532738	1435.963697248225	216.114001563732	1136.270154303421	1370.382487560684	384.125234055687	1041.996814960338	1444.313102662042	552.657156537829	1015.168497193953	1499.995472358520	371.179848272684	1080.373017829450	952.126447905090	527.441446535910	1071.911818852395	965.374355115704	253.345256254551	1167.631713388032	783.408754474621	501.926019796303	1129.670646594278	663.622613703502	580.927735025935	1221.756533659841	624.412563172418	505.301432515201	1243.894380458764	515.325544301845	532.678581023133	1116.345882503812	749.852988342372	282.391797926176	1023.328570983838	635.174447639653	225.948135138995	1105.127111365750	556.643433894010	289.592072787374	1102.771367281300	488.341277218013	301.594055193079	1075.767844799954	416.687142923305	294.689602509944	985.019430084762	302.727216294265	244.853812605919	1031.111003789430	191.807833189990	319.515740767460	1172.850371280953	436.465229213776	542.957988390360	1054.813393951217	390.491820770667	605.320881929213	1048.886007231612	278.376837085668	561.871886779282	855.482531237040	207.338288828927	537.846710721698	1024.523286362878	151.175314585651	579.928532993934	914.760169104161	147.077903472647	610.701070043111	1089.741790307561	36.978694074585	602.506539718231	901.734107706998	38.797033308373	366.928584843467	973.504596869841	35.082993610109	284.150162874285	1057.625962265550	95.836975471679	310.002217958022	1185.754944952907	43.178890926156	277.874262985169	1074.077096201688	1095.453558639259	73.990007461641	1294.995211545471	956.499632214176	56.220500915216	951.481904723248	1108.606813410963	668.518142564283	978.884653354287	848.494616439499	675.756382956092	
4	45.690285714286	851.368470251850	1007.947105050518	401.954168269071	1044.890405540018	1436.233351374319	215.220297085494	1136.543226936037	1370.327371846241	384.249520022248	1040.815138136826	1444.755197821716	551.626961169374	1015.837768418632	1500.328085088074	370.128960943766	1078.262255496621	953.025094853679	527.425103777193	1072.273123435794	965.465295249926	253.059805006334	1166.678664480567	785.842270643516	501.965513515748	1130.187087739501	665.824073290622	581.409681440207	1222.174674790003	627.130598658080	505.521053733252	1246.083507963951	519.444952226719	533.388692693041	1114.220137465452	749.228453571264	282.982443340889	1020.423575868188	635.273538699259	225.554627865030	1101.166582247907	556.072658407190	289.535688917250	1098.163869717237	487.888412298329	301.407112555540	1070.953188852627	416.476520515258	294.461061488492	979.950288066809	302.756413051473	244.563699806141	1025.706774176744	191.730083995244	319.324160142127	1178.082257413048	438.521542848280	543.688519977531	1062.382852227763	387.023486859877	605.963845217399	1061.990658889878	274.637165403097	562.711371396422	872.219103487537	193.878590231981	538.550589621078	1043.890801514860	146.565147502582	580.929559646029	934.459776988963	136.959287696308	611.723576389445	1114.829964123567	36.012354017644	603.970900855034	896.084086076057	38.851948119655	366.870471771838	967.877021753755	35.064477550688	284.112897066393	1052.031242477930	95.806772538187	309.921022311140	1180.155891864142	43.083008044349	277.848416681593	1078.605070907245	1096.722344234830	72.081449024460	1304.528658379099	966.374911310081	56.033223919430	942.834139943534	1111.581687650765	667.213297643206	964.093666414661	850.965103756999	675.257424647143	
5	45.703714285714	850.346888124141	1008.668967518584	399.954191268435	1047.239066099483	1436.366743236974	214.432291258099	1136.821367818024	1370.200136419018	384.434639411185	1039.703887134891	1445.146163074110	550.694362787788	1016.507018039430	1500.576364923966	369.159309307620	1076.220036074547	953.751337197166	527.500626607109	1072.578678407989	965.478555583302	252.890973189511	1165.457826951750	787.735277205967	502.198010420591	1130.051408808058	667.555865569103	581.972267193264	1221.836439983340	629.161178619507	505.853833726026	1247.298706738953	523.062998780616	534.121153040255	1112.082100537563	748.575122006109	283.619058797054	1017.561016178807	635.349316002043	225.193344166481	1097.224902825062	555.500291172053	289.523653394914	1093.580009026139	487.437483648776	301.249065379959	1066.201086776733	416.262952785609	294.245226403404	974.948535313839	302.767225476352	244.298748843074	1020.383174146110	191.645649538582	319.154979321998	1182.639459634506	440.238364520509	544.527619379637	1069.823250185905	383.077256891649	606.932353007917	1075.185769538734	270.666224559455	563.817887752423	889.739673773051	179.899298153990	539.816924676446	1063.745824431419	141.958708580356	582.212469910858	954.997466388260	126.654380629824	613.198936014956	1140.483088058179	35.528733775980	605.620987916513	890.522064925482	38.895328854046	366.820500057422	962.330966343593	35.047264876310	284.076634222352	1046.515363545251	95.773417409416	309.852612945562	1174.636031036698	42.988629802020	277.825995126836	1082.985853204028	1097.807880683143	70.378239327782	1313.461486854156	975.720944645220	56.025838870708	934.653653654624	1114.494635111843	665.999025639708	950.393187314319	853.450905328700	674.780652760191	
